<?xml version="1.0" encoding="UTF-8"?>
<svg xmlns="http://www.w3.org/2000/svg" xmlns:xlink="http://www.w3.org/1999/xlink" width="32pt" height="32pt" viewBox="0 0 32 32" version="1.1">
<g id="surface1">
<path style="fill:none;stroke-width:18.446;stroke-linecap:round;stroke-linejoin:miter;stroke:rgb(33.333333%,33.333333%,33.333333%);stroke-opacity:1;stroke-miterlimit:4;" d="M 250 571.769172 L 449.707031 687.064582 L 449.707031 917.655402 L 250 1032.950812 L 50.292969 917.655402 L 50.292969 687.064582 Z M 250 571.769172 " transform="matrix(0.064,0,0,0.064,0,-35.351039)"/>
<path style=" stroke:none;fill-rule:evenodd;fill:rgb(33.333333%,33.333333%,33.333333%);fill-opacity:1;" d="M 11.878906 12.023438 C 11.710938 12.027344 11.554688 12.09375 11.441406 12.214844 L 8.125 15.53125 C 7.878906 15.78125 7.878906 16.179688 8.125 16.429688 L 11.441406 19.746094 C 11.601562 19.910156 11.835938 19.976562 12.058594 19.914062 C 12.28125 19.859375 12.453125 19.6875 12.515625 19.460938 C 12.570312 19.242188 12.507812 19.007812 12.34375 18.84375 L 9.476562 15.980469 L 12.34375 13.117188 C 12.53125 12.929688 12.585938 12.652344 12.484375 12.410156 C 12.382812 12.167969 12.140625 12.015625 11.878906 12.023438 Z M 11.878906 12.023438 "/>
<path style=" stroke:none;fill-rule:evenodd;fill:rgb(33.333333%,33.333333%,33.333333%);fill-opacity:1;" d="M 20.101562 12.023438 C 19.84375 12.023438 19.609375 12.179688 19.511719 12.421875 C 19.414062 12.660156 19.472656 12.933594 19.65625 13.117188 L 22.523438 15.980469 L 19.65625 18.84375 C 19.492188 19.007812 19.429688 19.242188 19.484375 19.460938 C 19.546875 19.6875 19.71875 19.859375 19.941406 19.914062 C 20.164062 19.976562 20.398438 19.910156 20.558594 19.746094 L 23.875 16.429688 C 24.121094 16.179688 24.121094 15.78125 23.875 15.53125 L 20.558594 12.214844 C 20.4375 12.09375 20.273438 12.023438 20.101562 12.023438 Z M 20.101562 12.023438 "/>
<path style=" stroke:none;fill-rule:evenodd;fill:rgb(33.333333%,33.333333%,33.333333%);fill-opacity:1;" d="M 16.769531 11.015625 C 16.46875 11.023438 16.210938 11.238281 16.152344 11.535156 L 14.367188 20.210938 C 14.320312 20.4375 14.398438 20.664062 14.566406 20.820312 C 14.738281 20.96875 14.976562 21.019531 15.195312 20.945312 C 15.410156 20.875 15.570312 20.691406 15.617188 20.46875 L 17.398438 11.789062 C 17.4375 11.601562 17.390625 11.402344 17.269531 11.25 C 17.148438 11.101562 16.960938 11.015625 16.769531 11.015625 Z M 16.769531 11.015625 "/>
</g>
</svg>
